<mxfile host="65bd71144e">
    <diagram id="YlfVA-V8bkujarrC-YGL" name="第 1 页">
        <mxGraphModel dx="1002" dy="552" grid="0" gridSize="10" guides="1" tooltips="1" connect="1" arrows="1" fold="1" page="1" pageScale="1" pageWidth="950" pageHeight="280" math="0" shadow="0">
            <root>
                <mxCell id="0"/>
                <mxCell id="1" parent="0"/>
                <mxCell id="59" value="" style="shape=partialRectangle;whiteSpace=wrap;html=1;top=0;left=0;fillColor=none;flipH=1;movable=1;resizable=1;rotatable=1;deletable=1;editable=1;connectable=1;flipV=1;strokeWidth=0.5;" parent="1" vertex="1">
                    <mxGeometry x="124" y="214" width="801" height="53" as="geometry"/>
                </mxCell>
                <mxCell id="30" value="" style="shape=partialRectangle;whiteSpace=wrap;html=1;top=0;left=0;fillColor=none;flipH=1;movable=1;resizable=1;rotatable=1;deletable=1;editable=1;connectable=1;flipV=1;strokeWidth=0.5;" parent="1" vertex="1">
                    <mxGeometry x="124" y="124" width="800" height="90" as="geometry"/>
                </mxCell>
                <mxCell id="2" value="" style="shape=partialRectangle;whiteSpace=wrap;html=1;top=0;left=0;fillColor=none;flipH=1;movable=1;resizable=1;rotatable=1;deletable=1;editable=1;connectable=1;strokeWidth=0.5;" parent="1" vertex="1">
                    <mxGeometry x="124" y="27" width="801" height="97" as="geometry"/>
                </mxCell>
                <mxCell id="53" value="" style="endArrow=none;html=1;dashed=1;entryX=0.002;entryY=0.378;entryDx=0;entryDy=0;entryPerimeter=0;" parent="1" target="78" edge="1">
                    <mxGeometry width="50" height="50" relative="1" as="geometry">
                        <mxPoint x="648" y="214" as="sourcePoint"/>
                        <mxPoint x="647" y="23" as="targetPoint"/>
                    </mxGeometry>
                </mxCell>
                <mxCell id="52" value="" style="endArrow=none;html=1;dashed=1;" parent="1" edge="1">
                    <mxGeometry width="50" height="50" relative="1" as="geometry">
                        <mxPoint x="507" y="214" as="sourcePoint"/>
                        <mxPoint x="506" y="19" as="targetPoint"/>
                    </mxGeometry>
                </mxCell>
                <mxCell id="51" value="" style="endArrow=none;html=1;dashed=1;entryX=-0.11;entryY=0.496;entryDx=0;entryDy=0;entryPerimeter=0;" parent="1" target="72" edge="1">
                    <mxGeometry width="50" height="50" relative="1" as="geometry">
                        <mxPoint x="410" y="214" as="sourcePoint"/>
                        <mxPoint x="410" y="23" as="targetPoint"/>
                    </mxGeometry>
                </mxCell>
                <mxCell id="50" value="" style="endArrow=none;html=1;dashed=1;" parent="1" edge="1">
                    <mxGeometry width="50" height="50" relative="1" as="geometry">
                        <mxPoint x="270" y="214" as="sourcePoint"/>
                        <mxPoint x="270" y="21" as="targetPoint"/>
                    </mxGeometry>
                </mxCell>
                <mxCell id="3" value="" style="endArrow=none;html=1;dashed=1;" parent="1" edge="1">
                    <mxGeometry width="50" height="50" relative="1" as="geometry">
                        <mxPoint x="164" y="213" as="sourcePoint"/>
                        <mxPoint x="164" y="21" as="targetPoint"/>
                    </mxGeometry>
                </mxCell>
                <mxCell id="6" value="CB 1&amp;nbsp;&lt;br style=&quot;font-size: 10px;&quot;&gt;Vertex&amp;nbsp;" style="text;html=1;strokeColor=#82b366;fillColor=#E3F7E2;align=center;verticalAlign=middle;whiteSpace=wrap;rounded=0;strokeWidth=0.5;fontFamily=Linux Libertine;fontSource=https%3A%2F%2Ffonts.googleapis.com%2Fcss%3Ffamily%3DLinux%2BLibertine;fontSize=10;" parent="1" vertex="1">
                    <mxGeometry x="124" y="44" width="40" height="30" as="geometry"/>
                </mxCell>
                <mxCell id="12" value="Read&lt;br&gt;Request" style="text;html=1;strokeColor=none;fillColor=none;align=right;verticalAlign=middle;whiteSpace=wrap;rounded=0;fontFamily=Linux Libertine;fontSource=https%3A%2F%2Ffonts.googleapis.com%2Fcss%3Ffamily%3DLinux%2BLibertine;" parent="1" vertex="1">
                    <mxGeometry x="67" y="44" width="46" height="30" as="geometry"/>
                </mxCell>
                <mxCell id="13" value="Received&lt;br&gt;Data" style="text;html=1;strokeColor=none;fillColor=none;align=right;verticalAlign=middle;whiteSpace=wrap;rounded=0;fontFamily=Linux Libertine;fontSource=https%3A%2F%2Ffonts.googleapis.com%2Fcss%3Ffamily%3DLinux%2BLibertine;" parent="1" vertex="1">
                    <mxGeometry x="67" y="84" width="46" height="30" as="geometry"/>
                </mxCell>
                <mxCell id="20" value="CB 2&lt;br style=&quot;font-size: 10px;&quot;&gt;Vertex" style="text;html=1;strokeColor=#666666;fillColor=#f5f5f5;align=center;verticalAlign=middle;whiteSpace=wrap;rounded=0;strokeWidth=0.5;fontFamily=Linux Libertine;fontSource=https%3A%2F%2Ffonts.googleapis.com%2Fcss%3Ffamily%3DLinux%2BLibertine;fontSize=10;fontColor=#333333;" parent="1" vertex="1">
                    <mxGeometry x="270" y="86" width="40" height="30" as="geometry"/>
                </mxCell>
                <mxCell id="21" value="CB 2&lt;br style=&quot;font-size: 10px;&quot;&gt;Edge&amp;nbsp;" style="text;html=1;strokeColor=#666666;fillColor=#f5f5f5;align=center;verticalAlign=middle;whiteSpace=wrap;rounded=0;strokeWidth=0.5;fontFamily=Linux Libertine;fontSource=https%3A%2F%2Ffonts.googleapis.com%2Fcss%3Ffamily%3DLinux%2BLibertine;fontSize=10;fontColor=#333333;" parent="1" vertex="1">
                    <mxGeometry x="270" y="44" width="40" height="30" as="geometry"/>
                </mxCell>
                <mxCell id="18" value="CB 2&lt;br style=&quot;font-size: 10px;&quot;&gt;Vertex&amp;nbsp;" style="text;html=1;strokeColor=#666666;fillColor=#f5f5f5;align=center;verticalAlign=middle;whiteSpace=wrap;rounded=0;strokeWidth=0.5;fontFamily=Linux Libertine;fontSource=https%3A%2F%2Ffonts.googleapis.com%2Fcss%3Ffamily%3DLinux%2BLibertine;fontSize=10;fontColor=#333333;" parent="1" vertex="1">
                    <mxGeometry x="204" y="44" width="40" height="30" as="geometry"/>
                </mxCell>
                <mxCell id="15" value="CB 1&lt;br style=&quot;font-size: 10px;&quot;&gt;Edge&amp;nbsp;" style="text;html=1;strokeColor=#82b366;fillColor=#E3F7E2;align=center;verticalAlign=middle;whiteSpace=wrap;rounded=0;strokeWidth=0.5;fontFamily=Linux Libertine;fontSource=https%3A%2F%2Ffonts.googleapis.com%2Fcss%3Ffamily%3DLinux%2BLibertine;fontSize=10;" parent="1" vertex="1">
                    <mxGeometry x="164" y="44" width="40" height="30" as="geometry"/>
                </mxCell>
                <mxCell id="17" value="CB 1&lt;br style=&quot;border-color: var(--border-color); font-size: 10px;&quot;&gt;Edge&amp;nbsp;" style="text;html=1;strokeColor=#82b366;fillColor=#E3F7E2;align=center;verticalAlign=middle;whiteSpace=wrap;rounded=0;strokeWidth=0.5;fontFamily=Linux Libertine;fontSource=https%3A%2F%2Ffonts.googleapis.com%2Fcss%3Ffamily%3DLinux%2BLibertine;fontSize=10;" parent="1" vertex="1">
                    <mxGeometry x="204" y="86" width="66" height="30" as="geometry"/>
                </mxCell>
                <mxCell id="7" value="CB 1&amp;nbsp;&lt;br style=&quot;border-color: var(--border-color); font-size: 10px;&quot;&gt;Vertex&amp;nbsp;" style="text;html=1;strokeColor=#82b366;fillColor=#E3F7E2;align=center;verticalAlign=middle;whiteSpace=wrap;rounded=0;strokeWidth=0.5;fontFamily=Linux Libertine;fontSource=https%3A%2F%2Ffonts.googleapis.com%2Fcss%3Ffamily%3DLinux%2BLibertine;fontSize=10;" parent="1" vertex="1">
                    <mxGeometry x="164" y="86" width="40" height="30" as="geometry"/>
                </mxCell>
                <mxCell id="23" value="&lt;font style=&quot;font-size: 10px;&quot;&gt;CB 3&lt;br&gt;Vertex&lt;/font&gt;" style="text;html=1;strokeColor=#6c8ebf;fillColor=#E8F7FC;align=center;verticalAlign=middle;whiteSpace=wrap;rounded=0;strokeWidth=0.5;fontFamily=Linux Libertine;fontSource=https%3A%2F%2Ffonts.googleapis.com%2Fcss%3Ffamily%3DLinux%2BLibertine;" parent="1" vertex="1">
                    <mxGeometry x="310" y="44" width="40" height="30" as="geometry"/>
                </mxCell>
                <mxCell id="24" value="&lt;font style=&quot;font-size: 10px;&quot;&gt;CB 2&lt;br style=&quot;border-color: var(--border-color);&quot;&gt;Edge&amp;nbsp;&lt;/font&gt;" style="text;html=1;strokeColor=#666666;fillColor=#f5f5f5;align=center;verticalAlign=middle;whiteSpace=wrap;rounded=0;strokeWidth=0.5;fontFamily=Linux Libertine;fontSource=https%3A%2F%2Ffonts.googleapis.com%2Fcss%3Ffamily%3DLinux%2BLibertine;fontColor=#333333;" parent="1" vertex="1">
                    <mxGeometry x="310" y="86" width="100" height="30" as="geometry"/>
                </mxCell>
                <mxCell id="25" value="&lt;font style=&quot;font-size: 10px;&quot;&gt;CB 3&lt;br style=&quot;border-color: var(--border-color);&quot;&gt;Vertex&lt;/font&gt;" style="text;html=1;strokeColor=#6c8ebf;fillColor=#E8F7FC;align=center;verticalAlign=middle;whiteSpace=wrap;rounded=0;strokeWidth=0.5;fontFamily=Linux Libertine;fontSource=https%3A%2F%2Ffonts.googleapis.com%2Fcss%3Ffamily%3DLinux%2BLibertine;" parent="1" vertex="1">
                    <mxGeometry x="410" y="86" width="40" height="30" as="geometry"/>
                </mxCell>
                <mxCell id="26" value="&lt;font style=&quot;font-size: 10px;&quot;&gt;CB 3&lt;br style=&quot;border-color: var(--border-color);&quot;&gt;Edge&amp;nbsp;&lt;/font&gt;" style="text;html=1;strokeColor=#6c8ebf;fillColor=#E8F7FC;align=center;verticalAlign=middle;whiteSpace=wrap;rounded=0;strokeWidth=0.5;fontFamily=Linux Libertine;fontSource=https%3A%2F%2Ffonts.googleapis.com%2Fcss%3Ffamily%3DLinux%2BLibertine;" parent="1" vertex="1">
                    <mxGeometry x="410" y="44" width="40" height="30" as="geometry"/>
                </mxCell>
                <mxCell id="27" value="&lt;font style=&quot;font-size: 10px;&quot;&gt;CB 4&lt;br style=&quot;border-color: var(--border-color);&quot;&gt;Vertex&lt;/font&gt;" style="text;html=1;strokeColor=#d6b656;fillColor=#FFFFE3;align=center;verticalAlign=middle;whiteSpace=wrap;rounded=0;strokeWidth=0.5;fontFamily=Linux Libertine;fontSource=https%3A%2F%2Ffonts.googleapis.com%2Fcss%3Ffamily%3DLinux%2BLibertine;" parent="1" vertex="1">
                    <mxGeometry x="450" y="44" width="40" height="30" as="geometry"/>
                </mxCell>
                <mxCell id="28" value="&lt;font style=&quot;font-size: 10px;&quot;&gt;CB 3&lt;br style=&quot;border-color: var(--border-color);&quot;&gt;Edge&amp;nbsp;&lt;/font&gt;" style="text;html=1;strokeColor=#6c8ebf;fillColor=#E8F7FC;align=center;verticalAlign=middle;whiteSpace=wrap;rounded=0;strokeWidth=0.5;fontFamily=Linux Libertine;fontSource=https%3A%2F%2Ffonts.googleapis.com%2Fcss%3Ffamily%3DLinux%2BLibertine;" parent="1" vertex="1">
                    <mxGeometry x="450" y="86" width="56" height="30" as="geometry"/>
                </mxCell>
                <mxCell id="29" value="&lt;b&gt;AXI&lt;br&gt;Read&lt;/b&gt;" style="text;html=1;strokeColor=none;fillColor=none;align=center;verticalAlign=middle;whiteSpace=wrap;rounded=0;fontFamily=Linux Libertine;fontSource=https%3A%2F%2Ffonts.googleapis.com%2Fcss%3Ffamily%3DLinux%2BLibertine;" parent="1" vertex="1">
                    <mxGeometry x="16" y="65" width="51" height="30" as="geometry"/>
                </mxCell>
                <mxCell id="32" value="&lt;b&gt;Workload&lt;br&gt;dispatch, balance, and execute&lt;/b&gt;" style="text;html=1;strokeColor=none;fillColor=none;align=center;verticalAlign=middle;whiteSpace=wrap;rounded=0;fontFamily=Linux Libertine;fontSource=https%3A%2F%2Ffonts.googleapis.com%2Fcss%3Ffamily%3DLinux%2BLibertine;" parent="1" vertex="1">
                    <mxGeometry x="9" y="144" width="71" height="30" as="geometry"/>
                </mxCell>
                <mxCell id="33" value="&lt;font style=&quot;font-size: 10px;&quot;&gt;time -&amp;gt;&amp;nbsp;&lt;/font&gt;" style="text;html=1;strokeColor=none;fillColor=none;align=center;verticalAlign=middle;whiteSpace=wrap;rounded=0;fontFamily=Linux Libertine;fontSource=https%3A%2F%2Ffonts.googleapis.com%2Fcss%3Ffamily%3DLinux%2BLibertine;" parent="1" vertex="1">
                    <mxGeometry x="885" y="4" width="48" height="30" as="geometry"/>
                </mxCell>
                <mxCell id="34" value="PE 1" style="text;html=1;strokeColor=none;fillColor=none;align=center;verticalAlign=middle;whiteSpace=wrap;rounded=0;fontFamily=Linux Libertine;fontSource=https%3A%2F%2Ffonts.googleapis.com%2Fcss%3Ffamily%3DLinux%2BLibertine;" parent="1" vertex="1">
                    <mxGeometry x="80" y="124" width="48" height="30" as="geometry"/>
                </mxCell>
                <mxCell id="35" value="&lt;font style=&quot;font-size: 10px;&quot;&gt;PE 1 &amp;lt;:&amp;gt; &lt;span style=&quot;background-color: rgb(227, 247, 226);&quot;&gt;CB 1&lt;/span&gt;&lt;/font&gt;" style="text;html=1;strokeColor=default;fillColor=#E3F7E2;align=center;verticalAlign=middle;whiteSpace=wrap;rounded=1;strokeWidth=0.5;fontFamily=Linux Libertine;fontSource=https%3A%2F%2Ffonts.googleapis.com%2Fcss%3Ffamily%3DLinux%2BLibertine;" parent="1" vertex="1">
                    <mxGeometry x="164" y="131" width="233" height="16" as="geometry"/>
                </mxCell>
                <mxCell id="36" value="&lt;font style=&quot;font-size: 10px;&quot;&gt;PE 2&amp;nbsp;&lt;/font&gt;&lt;span style=&quot;font-size: 10px;&quot;&gt;&amp;lt;:&amp;gt; &lt;span style=&quot;background-color: rgb(245, 245, 245);&quot;&gt;CB 2&lt;/span&gt;&lt;/span&gt;" style="text;html=1;strokeColor=default;fillColor=#F5F5F5;align=center;verticalAlign=middle;whiteSpace=wrap;rounded=1;strokeWidth=0.5;fontFamily=Linux Libertine;fontSource=https%3A%2F%2Ffonts.googleapis.com%2Fcss%3Ffamily%3DLinux%2BLibertine;" parent="1" vertex="1">
                    <mxGeometry x="270" y="151" width="490" height="16" as="geometry"/>
                </mxCell>
                <mxCell id="38" value="&lt;font style=&quot;font-size: 10px;&quot;&gt;CB 4&lt;br style=&quot;border-color: var(--border-color);&quot;&gt;Vertex&lt;/font&gt;" style="text;html=1;strokeColor=#d6b656;fillColor=#FFFFE3;align=center;verticalAlign=middle;whiteSpace=wrap;rounded=0;strokeWidth=0.5;fontFamily=Linux Libertine;fontSource=https%3A%2F%2Ffonts.googleapis.com%2Fcss%3Ffamily%3DLinux%2BLibertine;" parent="1" vertex="1">
                    <mxGeometry x="506" y="86" width="40" height="30" as="geometry"/>
                </mxCell>
                <mxCell id="39" value="&lt;font style=&quot;font-size: 10px;&quot;&gt;CB 4&lt;br style=&quot;border-color: var(--border-color);&quot;&gt;Edge&amp;nbsp;&lt;/font&gt;" style="text;html=1;strokeColor=#d6b656;fillColor=#FFFFE3;align=center;verticalAlign=middle;whiteSpace=wrap;rounded=0;strokeWidth=0.5;fontFamily=Linux Libertine;fontSource=https%3A%2F%2Ffonts.googleapis.com%2Fcss%3Ffamily%3DLinux%2BLibertine;" parent="1" vertex="1">
                    <mxGeometry x="506" y="44" width="40" height="30" as="geometry"/>
                </mxCell>
                <mxCell id="40" value="&lt;font style=&quot;font-size: 10px;&quot;&gt;CB 5&lt;br style=&quot;border-color: var(--border-color);&quot;&gt;Vertex&lt;/font&gt;" style="text;html=1;strokeColor=#9673a6;fillColor=#FFF2FF;align=center;verticalAlign=middle;whiteSpace=wrap;rounded=0;strokeWidth=0.5;fontFamily=Linux Libertine;fontSource=https%3A%2F%2Ffonts.googleapis.com%2Fcss%3Ffamily%3DLinux%2BLibertine;" parent="1" vertex="1">
                    <mxGeometry x="546" y="44" width="40" height="30" as="geometry"/>
                </mxCell>
                <mxCell id="41" value="&lt;font style=&quot;font-size: 10px;&quot;&gt;CB 3&lt;br style=&quot;border-color: var(--border-color);&quot;&gt;Edge&amp;nbsp;&lt;/font&gt;" style="text;html=1;strokeColor=#d6b656;fillColor=#FFFFE3;align=center;verticalAlign=middle;whiteSpace=wrap;rounded=0;strokeWidth=0.5;fontFamily=Linux Libertine;fontSource=https%3A%2F%2Ffonts.googleapis.com%2Fcss%3Ffamily%3DLinux%2BLibertine;" parent="1" vertex="1">
                    <mxGeometry x="546" y="86" width="101" height="30" as="geometry"/>
                </mxCell>
                <mxCell id="42" value="&lt;font style=&quot;font-size: 10px;&quot;&gt;PE 3 &amp;lt;:&amp;gt;&amp;nbsp;&lt;/font&gt;&lt;span style=&quot;font-size: 10px; background-color: rgb(255, 255, 227);&quot;&gt;CB 4&lt;/span&gt;" style="text;html=1;strokeColor=default;fillColor=#FFFFE3;align=center;verticalAlign=middle;whiteSpace=wrap;rounded=1;strokeWidth=0.5;fontFamily=Linux Libertine;fontSource=https%3A%2F%2Ffonts.googleapis.com%2Fcss%3Ffamily%3DLinux%2BLibertine;" parent="1" vertex="1">
                    <mxGeometry x="506" y="171" width="227" height="16" as="geometry"/>
                </mxCell>
                <mxCell id="44" value="&lt;b&gt;GE execute&lt;br&gt;Write back&lt;/b&gt;" style="text;html=1;strokeColor=none;fillColor=none;align=center;verticalAlign=middle;whiteSpace=wrap;rounded=0;fontFamily=Linux Libertine;fontSource=https%3A%2F%2Ffonts.googleapis.com%2Fcss%3Ffamily%3DLinux%2BLibertine;" parent="1" vertex="1">
                    <mxGeometry x="5" y="228" width="79" height="30" as="geometry"/>
                </mxCell>
                <mxCell id="45" value="&lt;font style=&quot;font-size: 10px;&quot;&gt;PE 4 &amp;lt;:&amp;gt;&amp;nbsp;&lt;/font&gt;&lt;span style=&quot;font-size: 10px; background-color: rgb(255, 242, 255);&quot;&gt;CB 5&lt;/span&gt;" style="text;html=1;strokeColor=default;fillColor=#FFF2FF;align=center;verticalAlign=middle;whiteSpace=wrap;rounded=1;strokeWidth=0.5;fontFamily=Linux Libertine;fontSource=https%3A%2F%2Ffonts.googleapis.com%2Fcss%3Ffamily%3DLinux%2BLibertine;" parent="1" vertex="1">
                    <mxGeometry x="647" y="191" width="162" height="16" as="geometry"/>
                </mxCell>
                <mxCell id="46" value="&lt;font style=&quot;font-size: 10px;&quot;&gt;CB 5&lt;br style=&quot;border-color: var(--border-color);&quot;&gt;Vertex&lt;/font&gt;" style="text;html=1;strokeColor=#9673a6;fillColor=#FFF2FF;align=center;verticalAlign=middle;whiteSpace=wrap;rounded=0;strokeWidth=0.5;fontFamily=Linux Libertine;fontSource=https%3A%2F%2Ffonts.googleapis.com%2Fcss%3Ffamily%3DLinux%2BLibertine;" parent="1" vertex="1">
                    <mxGeometry x="647" y="86" width="40" height="30" as="geometry"/>
                </mxCell>
                <mxCell id="47" value="&lt;font style=&quot;font-size: 10px;&quot;&gt;CB 5&lt;br style=&quot;border-color: var(--border-color);&quot;&gt;Edge&amp;nbsp;&lt;/font&gt;" style="text;html=1;strokeColor=#9673a6;fillColor=#FFF2FF;align=center;verticalAlign=middle;whiteSpace=wrap;rounded=0;strokeWidth=0.5;fontFamily=Linux Libertine;fontSource=https%3A%2F%2Ffonts.googleapis.com%2Fcss%3Ffamily%3DLinux%2BLibertine;" parent="1" vertex="1">
                    <mxGeometry x="647" y="44" width="40" height="30" as="geometry"/>
                </mxCell>
                <mxCell id="49" value="&lt;font style=&quot;font-size: 10px;&quot;&gt;CB 5&lt;br style=&quot;border-color: var(--border-color);&quot;&gt;Edge&amp;nbsp;&lt;/font&gt;" style="text;html=1;strokeColor=#9673a6;fillColor=#FFF2FF;align=center;verticalAlign=middle;whiteSpace=wrap;rounded=0;strokeWidth=0.5;fontFamily=Linux Libertine;fontSource=https%3A%2F%2Ffonts.googleapis.com%2Fcss%3Ffamily%3DLinux%2BLibertine;" parent="1" vertex="1">
                    <mxGeometry x="687" y="86" width="101" height="30" as="geometry"/>
                </mxCell>
                <mxCell id="37" value="&lt;font style=&quot;font-size: 10px;&quot;&gt;PE 1&amp;nbsp;&lt;/font&gt;&lt;span style=&quot;font-size: 10px;&quot;&gt;&amp;lt;:&amp;gt; &lt;span style=&quot;background-color: rgb(232, 247, 252);&quot;&gt;CB 3&lt;/span&gt;&lt;/span&gt;" style="text;html=1;strokeColor=default;fillColor=#E8F7FC;align=center;verticalAlign=middle;whiteSpace=wrap;rounded=1;strokeWidth=0.5;fontFamily=Linux Libertine;fontSource=https%3A%2F%2Ffonts.googleapis.com%2Fcss%3Ffamily%3DLinux%2BLibertine;" parent="1" vertex="1">
                    <mxGeometry x="410" y="131" width="295" height="16" as="geometry"/>
                </mxCell>
                <mxCell id="54" value="PE 2" style="text;html=1;strokeColor=none;fillColor=none;align=center;verticalAlign=middle;whiteSpace=wrap;rounded=0;fontFamily=Linux Libertine;fontSource=https%3A%2F%2Ffonts.googleapis.com%2Fcss%3Ffamily%3DLinux%2BLibertine;" parent="1" vertex="1">
                    <mxGeometry x="80" y="144" width="48" height="30" as="geometry"/>
                </mxCell>
                <mxCell id="55" value="PE 3" style="text;html=1;strokeColor=none;fillColor=none;align=center;verticalAlign=middle;whiteSpace=wrap;rounded=0;fontFamily=Linux Libertine;fontSource=https%3A%2F%2Ffonts.googleapis.com%2Fcss%3Ffamily%3DLinux%2BLibertine;" parent="1" vertex="1">
                    <mxGeometry x="80" y="164" width="48" height="30" as="geometry"/>
                </mxCell>
                <mxCell id="56" value="PE 4" style="text;html=1;strokeColor=none;fillColor=none;align=center;verticalAlign=middle;whiteSpace=wrap;rounded=0;fontFamily=Linux Libertine;fontSource=https%3A%2F%2Ffonts.googleapis.com%2Fcss%3Ffamily%3DLinux%2BLibertine;" parent="1" vertex="1">
                    <mxGeometry x="80" y="184" width="48" height="30" as="geometry"/>
                </mxCell>
                <mxCell id="58" value="&lt;span style=&quot;font-size: 10px;&quot;&gt;GE &amp;amp; Write Back RB 1&lt;/span&gt;" style="text;html=1;strokeColor=#666666;fillColor=#D8F3F5;align=center;verticalAlign=middle;whiteSpace=wrap;rounded=0;strokeWidth=0.5;fontFamily=Linux Libertine;fontSource=https%3A%2F%2Ffonts.googleapis.com%2Fcss%3Ffamily%3DLinux%2BLibertine;fontColor=#333333;" parent="1" vertex="1">
                    <mxGeometry x="809" y="225.5" width="116" height="30" as="geometry"/>
                </mxCell>
                <mxCell id="60" value="" style="endArrow=none;html=1;dashed=1;" parent="1" edge="1">
                    <mxGeometry width="50" height="50" relative="1" as="geometry">
                        <mxPoint x="809" y="264" as="sourcePoint"/>
                        <mxPoint x="808" y="18" as="targetPoint"/>
                    </mxGeometry>
                </mxCell>
                <mxCell id="63" value="&lt;font style=&quot;font-size: 10px;&quot;&gt;PE 1&amp;nbsp;&lt;/font&gt;" style="text;html=1;strokeColor=default;fillColor=default;align=center;verticalAlign=middle;whiteSpace=wrap;rounded=1;strokeWidth=0.5;fontFamily=Linux Libertine;fontSource=https%3A%2F%2Ffonts.googleapis.com%2Fcss%3Ffamily%3DLinux%2BLibertine;" parent="1" vertex="1">
                    <mxGeometry x="809" y="131" width="135" height="16" as="geometry"/>
                </mxCell>
                <mxCell id="66" value="" style="text;html=1;strokeColor=default;fillColor=default;align=center;verticalAlign=middle;whiteSpace=wrap;rounded=1;strokeWidth=0.5;fontFamily=Linux Libertine;fontSource=https%3A%2F%2Ffonts.googleapis.com%2Fcss%3Ffamily%3DLinux%2BLibertine;" parent="1" vertex="1">
                    <mxGeometry x="852" y="151" width="91" height="16" as="geometry"/>
                </mxCell>
                <mxCell id="65" value="" style="rounded=0;whiteSpace=wrap;html=1;labelBackgroundColor=#FFFFE3;strokeColor=none;strokeWidth=0.5;fontFamily=Linux Libertine;fontSource=https%3A%2F%2Ffonts.googleapis.com%2Fcss%3Ffamily%3DLinux%2BLibertine;fontSize=10;fillColor=#FFFFFF;" parent="1" vertex="1">
                    <mxGeometry x="925" y="37" width="21" height="167" as="geometry"/>
                </mxCell>
                <mxCell id="67" value="&lt;span style=&quot;color: rgb(0, 0, 0); font-family: &amp;quot;Linux Libertine&amp;quot;; font-size: 10px; font-style: normal; font-variant-ligatures: normal; font-variant-caps: normal; font-weight: 400; letter-spacing: normal; orphans: 2; text-align: center; text-indent: 0px; text-transform: none; widows: 2; word-spacing: 0px; -webkit-text-stroke-width: 0px; text-decoration-thickness: initial; text-decoration-style: initial; text-decoration-color: initial; float: none; display: inline !important;&quot;&gt;PE 2&amp;nbsp;&lt;/span&gt;" style="text;whiteSpace=wrap;html=1;fontSize=10;fontFamily=Linux Libertine;" parent="1" vertex="1">
                    <mxGeometry x="884.0000000000001" y="146.99996093749996" width="49" height="34" as="geometry"/>
                </mxCell>
                <mxCell id="68" value="" style="endArrow=none;html=1;fontFamily=Linux Libertine;fontSource=https%3A%2F%2Ffonts.googleapis.com%2Fcss%3Ffamily%3DLinux%2BLibertine;fontSize=10;exitX=0;exitY=0;exitDx=0;exitDy=0;entryX=1;entryY=0;entryDx=0;entryDy=0;strokeWidth=0.5;" parent="1" source="2" target="2" edge="1">
                    <mxGeometry width="50" height="50" relative="1" as="geometry">
                        <mxPoint x="252" y="170" as="sourcePoint"/>
                        <mxPoint x="302" y="120" as="targetPoint"/>
                    </mxGeometry>
                </mxCell>
                <mxCell id="70" value="&lt;font style=&quot;font-size: 8px;&quot;&gt;t&lt;sub&gt;1&lt;/sub&gt;&lt;/font&gt;" style="text;html=1;strokeColor=none;fillColor=none;align=right;verticalAlign=middle;whiteSpace=wrap;rounded=0;fontFamily=Linux Libertine;fontSource=https%3A%2F%2Ffonts.googleapis.com%2Fcss%3Ffamily%3DLinux%2BLibertine;" parent="1" vertex="1">
                    <mxGeometry x="160" y="11" width="14" height="16" as="geometry"/>
                </mxCell>
                <mxCell id="71" value="&lt;font style=&quot;font-size: 8px;&quot;&gt;t&lt;/font&gt;&lt;font style=&quot;font-size: 6.66667px;&quot;&gt;&lt;sub&gt;2&lt;/sub&gt;&lt;/font&gt;" style="text;html=1;strokeColor=none;fillColor=none;align=right;verticalAlign=middle;whiteSpace=wrap;rounded=0;fontFamily=Linux Libertine;fontSource=https%3A%2F%2Ffonts.googleapis.com%2Fcss%3Ffamily%3DLinux%2BLibertine;" parent="1" vertex="1">
                    <mxGeometry x="266" y="11" width="14" height="16" as="geometry"/>
                </mxCell>
                <mxCell id="72" value="&lt;font style=&quot;font-size: 8px;&quot;&gt;t&lt;/font&gt;&lt;font style=&quot;font-size: 5.55556px;&quot;&gt;&lt;sub&gt;3&lt;/sub&gt;&lt;/font&gt;" style="text;html=1;strokeColor=none;fillColor=none;align=right;verticalAlign=middle;whiteSpace=wrap;rounded=0;fontFamily=Linux Libertine;fontSource=https%3A%2F%2Ffonts.googleapis.com%2Fcss%3Ffamily%3DLinux%2BLibertine;" parent="1" vertex="1">
                    <mxGeometry x="411" y="11" width="9" height="16" as="geometry"/>
                </mxCell>
                <mxCell id="73" value="&lt;font style=&quot;font-size: 8px;&quot;&gt;t&lt;/font&gt;&lt;font style=&quot;font-size: 4.62963px;&quot;&gt;&lt;sub&gt;4&lt;/sub&gt;&lt;/font&gt;" style="text;html=1;strokeColor=none;fillColor=none;align=right;verticalAlign=middle;whiteSpace=wrap;rounded=0;fontFamily=Linux Libertine;fontSource=https%3A%2F%2Ffonts.googleapis.com%2Fcss%3Ffamily%3DLinux%2BLibertine;" parent="1" vertex="1">
                    <mxGeometry x="506" y="11" width="9" height="16" as="geometry"/>
                </mxCell>
                <mxCell id="74" value="&lt;span style=&quot;font-size: 10px;&quot;&gt;stage&lt;sub&gt;1&lt;/sub&gt;&lt;/span&gt;" style="text;html=1;strokeColor=none;fillColor=none;align=right;verticalAlign=middle;whiteSpace=wrap;rounded=0;fontFamily=Linux Libertine;fontSource=https%3A%2F%2Ffonts.googleapis.com%2Fcss%3Ffamily%3DLinux%2BLibertine;" parent="1" vertex="1">
                    <mxGeometry x="131" y="11" width="26" height="16" as="geometry"/>
                </mxCell>
                <mxCell id="75" value="&lt;font style=&quot;font-size: 10px;&quot;&gt;stage&lt;sub style=&quot;&quot;&gt;2&lt;/sub&gt;&lt;/font&gt;" style="text;html=1;strokeColor=none;fillColor=none;align=right;verticalAlign=middle;whiteSpace=wrap;rounded=0;fontFamily=Linux Libertine;fontSource=https%3A%2F%2Ffonts.googleapis.com%2Fcss%3Ffamily%3DLinux%2BLibertine;" parent="1" vertex="1">
                    <mxGeometry x="206" y="11" width="26" height="16" as="geometry"/>
                </mxCell>
                <mxCell id="76" value="&lt;font style=&quot;font-size: 10px;&quot;&gt;stage&lt;sub style=&quot;&quot;&gt;3&lt;/sub&gt;&lt;/font&gt;" style="text;html=1;strokeColor=none;fillColor=none;align=right;verticalAlign=middle;whiteSpace=wrap;rounded=0;fontFamily=Linux Libertine;fontSource=https%3A%2F%2Ffonts.googleapis.com%2Fcss%3Ffamily%3DLinux%2BLibertine;" parent="1" vertex="1">
                    <mxGeometry x="327" y="11" width="26" height="16" as="geometry"/>
                </mxCell>
                <mxCell id="77" value="&lt;font style=&quot;font-size: 10px;&quot;&gt;stage&lt;sub style=&quot;&quot;&gt;4&lt;/sub&gt;&lt;/font&gt;" style="text;html=1;strokeColor=none;fillColor=none;align=right;verticalAlign=middle;whiteSpace=wrap;rounded=0;fontFamily=Linux Libertine;fontSource=https%3A%2F%2Ffonts.googleapis.com%2Fcss%3Ffamily%3DLinux%2BLibertine;" parent="1" vertex="1">
                    <mxGeometry x="447" y="11" width="26" height="16" as="geometry"/>
                </mxCell>
                <mxCell id="78" value="&lt;font style=&quot;font-size: 8px;&quot;&gt;t&lt;/font&gt;&lt;font style=&quot;font-size: 3.85803px;&quot;&gt;&lt;sub&gt;5&lt;/sub&gt;&lt;/font&gt;" style="text;html=1;strokeColor=none;fillColor=none;align=right;verticalAlign=middle;whiteSpace=wrap;rounded=0;fontFamily=Linux Libertine;fontSource=https%3A%2F%2Ffonts.googleapis.com%2Fcss%3Ffamily%3DLinux%2BLibertine;" parent="1" vertex="1">
                    <mxGeometry x="647" y="11" width="9" height="16" as="geometry"/>
                </mxCell>
                <mxCell id="79" value="&lt;font style=&quot;&quot;&gt;&lt;span style=&quot;font-size: 10px;&quot;&gt;stage&lt;/span&gt;&lt;sub style=&quot;&quot;&gt;&lt;font style=&quot;font-size: 8.3px;&quot;&gt;5&lt;/font&gt;&lt;/sub&gt;&lt;/font&gt;" style="text;html=1;strokeColor=none;fillColor=none;align=right;verticalAlign=middle;whiteSpace=wrap;rounded=0;fontFamily=Linux Libertine;fontSource=https%3A%2F%2Ffonts.googleapis.com%2Fcss%3Ffamily%3DLinux%2BLibertine;" parent="1" vertex="1">
                    <mxGeometry x="568" y="11" width="26" height="16" as="geometry"/>
                </mxCell>
                <mxCell id="80" value="&lt;font style=&quot;font-size: 10px;&quot;&gt;stage&lt;sub style=&quot;&quot;&gt;6&lt;/sub&gt;&lt;/font&gt;" style="text;html=1;strokeColor=none;fillColor=none;align=right;verticalAlign=middle;whiteSpace=wrap;rounded=0;fontFamily=Linux Libertine;fontSource=https%3A%2F%2Ffonts.googleapis.com%2Fcss%3Ffamily%3DLinux%2BLibertine;" parent="1" vertex="1">
                    <mxGeometry x="717" y="11" width="26" height="16" as="geometry"/>
                </mxCell>
                <mxCell id="81" value="&lt;font style=&quot;font-size: 8px;&quot;&gt;t&lt;/font&gt;&lt;font style=&quot;font-size: 3.21502px;&quot;&gt;6&lt;/font&gt;" style="text;html=1;strokeColor=none;fillColor=none;align=right;verticalAlign=middle;whiteSpace=wrap;rounded=0;fontFamily=Linux Libertine;fontSource=https%3A%2F%2Ffonts.googleapis.com%2Fcss%3Ffamily%3DLinux%2BLibertine;" parent="1" vertex="1">
                    <mxGeometry x="809" y="11" width="9" height="16" as="geometry"/>
                </mxCell>
                <mxCell id="84" value="" style="endArrow=classic;html=1;strokeWidth=0.5;fontFamily=Linux Libertine;fontSource=https%3A%2F%2Ffonts.googleapis.com%2Fcss%3Ffamily%3DLinux%2BLibertine;fontSize=3.8;strokeColor=#FF0000;" parent="1" edge="1">
                    <mxGeometry width="50" height="50" relative="1" as="geometry">
                        <mxPoint x="822" y="69" as="sourcePoint"/>
                        <mxPoint x="708" y="58" as="targetPoint"/>
                    </mxGeometry>
                </mxCell>
                <mxCell id="85" value="" style="endArrow=classic;html=1;strokeWidth=0.5;fontFamily=Linux Libertine;fontSource=https%3A%2F%2Ffonts.googleapis.com%2Fcss%3Ffamily%3DLinux%2BLibertine;fontSize=3.8;strokeColor=#FF0000;" parent="1" edge="1">
                    <mxGeometry width="50" height="50" relative="1" as="geometry">
                        <mxPoint x="823" y="81" as="sourcePoint"/>
                        <mxPoint x="795" y="97" as="targetPoint"/>
                    </mxGeometry>
                </mxCell>
                <mxCell id="86" value="&lt;font color=&quot;#ff0000&quot; style=&quot;font-size: 10px;&quot;&gt;Overlap request &lt;br&gt;and response&amp;nbsp;&lt;/font&gt;" style="text;html=1;strokeColor=none;fillColor=none;align=center;verticalAlign=middle;whiteSpace=wrap;rounded=0;fontFamily=Linux Libertine;fontSource=https%3A%2F%2Ffonts.googleapis.com%2Fcss%3Ffamily%3DLinux%2BLibertine;" parent="1" vertex="1">
                    <mxGeometry x="820" y="60.5" width="76" height="30" as="geometry"/>
                </mxCell>
                <mxCell id="89" style="edgeStyle=none;html=1;strokeColor=#FF0000;strokeWidth=0.5;fontFamily=Linux Libertine;fontSource=https%3A%2F%2Ffonts.googleapis.com%2Fcss%3Ffamily%3DLinux%2BLibertine;fontSize=3.8;fontColor=#FF0000;" parent="1" source="87" edge="1">
                    <mxGeometry relative="1" as="geometry">
                        <mxPoint x="176.42852201915912" y="152.1905023484003" as="targetPoint"/>
                    </mxGeometry>
                </mxCell>
                <mxCell id="90" style="edgeStyle=none;html=1;strokeColor=#FF0000;strokeWidth=0.5;fontFamily=Linux Libertine;fontSource=https%3A%2F%2Ffonts.googleapis.com%2Fcss%3Ffamily%3DLinux%2BLibertine;fontSize=3.8;fontColor=#FF0000;" parent="1" source="87" edge="1">
                    <mxGeometry relative="1" as="geometry">
                        <mxPoint x="408.04756673177053" y="139.2381155831472" as="targetPoint"/>
                    </mxGeometry>
                </mxCell>
                <mxCell id="91" style="edgeStyle=none;html=1;entryX=0;entryY=0.5;entryDx=0;entryDy=0;strokeColor=#FF0000;strokeWidth=0.5;fontFamily=Linux Libertine;fontSource=https%3A%2F%2Ffonts.googleapis.com%2Fcss%3Ffamily%3DLinux%2BLibertine;fontSize=3.8;fontColor=#FF0000;" parent="1" source="87" target="36" edge="1">
                    <mxGeometry relative="1" as="geometry"/>
                </mxCell>
                <mxCell id="87" value="&lt;font color=&quot;#ff0000&quot; style=&quot;font-size: 10px;&quot;&gt;balance CB workload &lt;br&gt;to idle PE&amp;nbsp;&lt;/font&gt;" style="text;html=1;strokeColor=none;fillColor=none;align=center;verticalAlign=middle;whiteSpace=wrap;rounded=0;fontFamily=Linux Libertine;fontSource=https%3A%2F%2Ffonts.googleapis.com%2Fcss%3Ffamily%3DLinux%2BLibertine;" parent="1" vertex="1">
                    <mxGeometry x="284" y="174" width="76" height="30" as="geometry"/>
                </mxCell>
                <mxCell id="93" style="edgeStyle=none;html=1;entryX=0;entryY=0.5;entryDx=0;entryDy=0;strokeColor=#FF0000;strokeWidth=0.5;fontFamily=Linux Libertine;fontSource=https%3A%2F%2Ffonts.googleapis.com%2Fcss%3Ffamily%3DLinux%2BLibertine;fontSize=3.8;fontColor=#FF0000;" parent="1" source="92" target="58" edge="1">
                    <mxGeometry relative="1" as="geometry"/>
                </mxCell>
                <mxCell id="94" style="edgeStyle=none;html=1;strokeColor=#FF0000;strokeWidth=0.5;fontFamily=Linux Libertine;fontSource=https%3A%2F%2Ffonts.googleapis.com%2Fcss%3Ffamily%3DLinux%2BLibertine;fontSize=3.8;fontColor=#FF0000;exitX=0.943;exitY=-0.038;exitDx=0;exitDy=0;exitPerimeter=0;" parent="1" source="92" edge="1">
                    <mxGeometry relative="1" as="geometry">
                        <mxPoint x="808.0400878906248" y="153.51996459960947" as="targetPoint"/>
                    </mxGeometry>
                </mxCell>
                <mxCell id="92" value="&lt;font style=&quot;font-size: 10px;&quot; color=&quot;#ff0000&quot;&gt;All PEs finished a RB, ping-pong switch to GE, PEs perform next RB&amp;nbsp;&lt;/font&gt;" style="text;html=1;strokeColor=none;fillColor=none;align=left;verticalAlign=middle;whiteSpace=wrap;rounded=0;fontFamily=Linux Libertine;fontSource=https%3A%2F%2Ffonts.googleapis.com%2Fcss%3Ffamily%3DLinux%2BLibertine;" parent="1" vertex="1">
                    <mxGeometry x="583" y="225.5" width="200" height="30" as="geometry"/>
                </mxCell>
                <mxCell id="96" value="" style="endArrow=none;html=1;fontSize=10;strokeWidth=0.5;exitX=0;exitY=0;exitDx=0;exitDy=0;" edge="1" parent="1" source="2">
                    <mxGeometry width="50" height="50" relative="1" as="geometry">
                        <mxPoint x="138" y="56" as="sourcePoint"/>
                        <mxPoint x="124" y="9" as="targetPoint"/>
                    </mxGeometry>
                </mxCell>
                <mxCell id="98" value="GE" style="text;html=1;strokeColor=none;fillColor=none;align=center;verticalAlign=middle;whiteSpace=wrap;rounded=0;fontFamily=Linux Libertine;fontSource=https%3A%2F%2Ffonts.googleapis.com%2Fcss%3Ffamily%3DLinux%2BLibertine;" vertex="1" parent="1">
                    <mxGeometry x="80" y="228" width="48" height="30" as="geometry"/>
                </mxCell>
            </root>
        </mxGraphModel>
    </diagram>
</mxfile>